<svg xmlns="http://www.w3.org/2000/svg" width="188" height="56" viewBox="0 0 188 56">
    <g fill="none" fill-rule="evenodd">
        <g>
            <rect width="187" height="55" x=".5" y=".5" stroke="#BBB" rx="6"/>
            <path fill="#444" d="M73.48 44.625l-.276-.774a927.24 927.24 0 0 1-.63-1.785l-.632-1.784-.275-.774h-7.174l-1.812 5.117h-2.362l6.649-17.879h2.224l6.65 17.879h-2.363zm-5.437-15.166l-.294.824c-.196.55-.435 1.23-.719 2.039-.283.81-.568 1.619-.856 2.428-.287.81-.529 1.489-.725 2.038l-.293.824h5.849l-2.887-8.153h-.075zm16.147 2.057c1.658 0 3 .605 4.025 1.815 1.024 1.21 1.537 2.827 1.537 4.851 0 2.016-.508 3.63-1.525 4.845-1.016 1.214-2.345 1.821-3.987 1.821-.933 0-1.758-.21-2.474-.632a4.438 4.438 0 0 1-1.663-1.685h-.05v6.393H77.88V31.74h2.062v2.18h.05c.4-.726.964-1.308 1.693-1.746.73-.438 1.565-.657 2.506-.657zm-.425 11.436c1.158 0 2.075-.43 2.75-1.288.675-.86 1.012-2.02 1.012-3.482 0-1.454-.337-2.612-1.012-3.475s-1.592-1.295-2.75-1.295c-1.108 0-2.006.438-2.693 1.313-.687.876-1.031 2.028-1.031 3.457 0 1.437.344 2.592 1.03 3.463.688.872 1.586 1.307 2.694 1.307zm14.798-11.436c1.658 0 3 .605 4.025 1.815 1.024 1.21 1.537 2.827 1.537 4.851 0 2.016-.508 3.63-1.525 4.845-1.016 1.214-2.345 1.821-3.987 1.821-.933 0-1.758-.21-2.475-.632a4.438 4.438 0 0 1-1.662-1.685h-.05v6.393h-2.174V31.74h2.062v2.18h.05c.4-.726.964-1.308 1.693-1.746.73-.438 1.565-.657 2.506-.657zm-.425 11.436c1.158 0 2.075-.43 2.75-1.288.675-.86 1.012-2.02 1.012-3.482 0-1.454-.337-2.612-1.012-3.475s-1.592-1.295-2.75-1.295c-1.108 0-2.006.438-2.693 1.313-.688.876-1.031 2.028-1.031 3.457 0 1.437.343 2.592 1.03 3.463.688.872 1.586 1.307 2.694 1.307zm13.523-3.246h2.262c.109.967.588 1.743 1.438 2.33.85.586 1.916.88 3.2.88 1.216 0 2.222-.288 3.017-.862.796-.574 1.194-1.299 1.194-2.174 0-.76-.277-1.384-.831-1.871-.554-.488-1.44-.884-2.656-1.19l-2.312-.595c-3.2-.809-4.8-2.383-4.8-4.72 0-1.487.594-2.701 1.782-3.643 1.187-.942 2.718-1.412 4.593-1.412 1.791 0 3.274.475 4.449 1.425 1.175.95 1.787 2.176 1.837 3.68h-2.25c-.1-.959-.516-1.715-1.25-2.268-.732-.553-1.686-.83-2.861-.83-1.167 0-2.119.272-2.856.818-.738.545-1.106 1.255-1.106 2.13 0 .678.268 1.234.806 1.667.537.434 1.418.808 2.643 1.122l1.888.495c1.866.463 3.207 1.078 4.024 1.846.816.768 1.225 1.793 1.225 3.073 0 1.636-.606 2.93-1.819 3.884-1.212.954-2.856 1.431-4.93 1.431-1.908 0-3.473-.475-4.693-1.425-1.221-.95-1.885-2.213-1.994-3.79zM128.41 28.63h2.174v3.11h2.525v1.772h-2.525v7.657c0 .587.13 1.018.388 1.295.258.277.666.415 1.225.415.125 0 .287-.008.487-.025.2-.016.338-.029.413-.037v1.809a3.593 3.593 0 0 1-.594.074c-.263.017-.523.025-.781.025-1.192 0-2.042-.264-2.55-.793-.508-.528-.762-1.412-.762-2.651V33.51h-1.937v-1.772h1.937v-3.11zm12.698 16.219c-1.8 0-3.254-.599-4.362-1.797-1.108-1.197-1.662-2.82-1.662-4.869 0-2.057.554-3.682 1.662-4.875 1.108-1.194 2.562-1.79 4.362-1.79 1.791 0 3.241.596 4.35 1.79 1.107 1.193 1.661 2.818 1.661 4.875 0 2.049-.554 3.672-1.662 4.87-1.108 1.197-2.558 1.796-4.35 1.796zm0-1.896c1.15 0 2.07-.415 2.762-1.245.692-.83 1.037-2.005 1.037-3.525s-.345-2.695-1.037-3.525c-.692-.83-1.612-1.245-2.762-1.245s-2.073.415-2.768 1.245c-.696.83-1.044 2.005-1.044 3.525s.348 2.695 1.044 3.525c.695.83 1.618 1.245 2.768 1.245zm8.511 1.673V31.739h2.05v2.107h.05c.466-1.553 1.516-2.33 3.15-2.33.191 0 .364.01.518.031.154.02.273.04.356.056v2.094a1.99 1.99 0 0 0-.443-.087 6.253 6.253 0 0 0-.72-.037c-.84 0-1.516.277-2.024.83-.508.554-.762 1.285-.762 2.193v8.029h-2.175zm13.41-11.238c-1.016 0-1.853.347-2.511 1.04-.659.695-1.021 1.579-1.088 2.652h7.062c-.025-1.082-.352-1.968-.981-2.657-.63-.69-1.456-1.035-2.481-1.035zm3.413 7.546h2.137c-.183 1.123-.777 2.056-1.781 2.8-1.004.743-2.214 1.115-3.63 1.115-1.859 0-3.321-.597-4.388-1.79-1.066-1.194-1.6-2.803-1.6-4.826 0-2 .534-3.618 1.6-4.857 1.067-1.24 2.496-1.859 4.287-1.859 1.758 0 3.143.585 4.156 1.753 1.012 1.17 1.518 2.728 1.518 4.678v.817h-9.323v.124c0 1.231.341 2.22 1.025 2.968.683.747 1.608 1.121 2.774 1.121.825 0 1.523-.19 2.094-.57.57-.38.947-.871 1.13-1.474z"/>
            <path fill="#444" fill-rule="nonzero" d="M42.507 41.742c-1.55 2.235-3.151 4.457-5.68 4.503-2.49.047-3.288-1.455-6.129-1.455-2.843 0-3.733 1.409-6.083 1.502-2.442.09-4.3-2.415-5.86-4.64-3.19-4.55-5.626-12.865-2.351-18.477 1.622-2.786 4.527-4.55 7.676-4.596 2.398-.044 4.664 1.596 6.128 1.596 1.467 0 4.217-1.968 7.108-1.68 1.21.05 4.606.481 6.787 3.631-.172.112-4.054 2.34-4.006 6.984.047 5.546 4.924 7.39 4.98 7.415-.043.13-.779 2.632-2.57 5.217zm-10.62-29.34c1.338-1.548 3.6-2.7 5.467-2.777.239 2.15-.638 4.304-1.933 5.856-1.297 1.55-3.421 2.756-5.506 2.595-.283-2.104.768-4.299 1.971-5.674z"/>
        </g>
        <path fill="#606060" d="M68.953 20.125l-.813-2.294h-3.215l-.813 2.294h-1.059l2.98-8.015h.998l2.98 8.015h-1.058zm-2.465-6.72L65.22 16.98h2.622l-1.266-3.577h-.09zm10.508.733l-2.235 5.987h-.986l-2.235-5.987h1.03l1.653 4.932h.09l1.653-4.932h1.03zm4.47 5.254c.991 0 1.725-.644 1.725-1.5v-.55l-1.625.106c-.918.061-1.322.378-1.322.977 0 .611.521.967 1.222.967zm-.18.839c-1.17 0-2.039-.69-2.039-1.783 0-1.072.796-1.689 2.202-1.772l1.742-.106v-.544c0-.739-.465-1.144-1.367-1.144-.723 0-1.227.272-1.361.744h-.975c.129-.96 1.081-1.594 2.37-1.594 1.473 0 2.297.75 2.297 1.994v4.099h-.919v-.883h-.09c-.392.639-1.053.989-1.86.989zm6.218-.106v-5.987h.963v5.987h-.963zm.481-7.204c-.37 0-.672-.3-.672-.666a.671.671 0 1 1 1.345 0 .671.671 0 0 1-.673.666zm3.92 7.204V11.76h.964v8.365h-.964zm6.24-.733c.992 0 1.726-.644 1.726-1.5v-.55l-1.625.106c-.919.061-1.322.378-1.322.977 0 .611.52.967 1.221.967zm-.18.839c-1.17 0-2.039-.69-2.039-1.783 0-1.072.796-1.689 2.202-1.772l1.743-.106v-.544c0-.739-.465-1.144-1.367-1.144-.723 0-1.227.272-1.362.744h-.975c.13-.96 1.082-1.594 2.37-1.594 1.474 0 2.297.75 2.297 1.994v4.099h-.918v-.883h-.09c-.392.639-1.053.989-1.86.989zm9.199 0c-.84 0-1.558-.395-1.939-1.061h-.09v.955h-.918V11.76h.963v3.322h.09c.33-.645 1.064-1.05 1.894-1.05 1.535 0 2.532 1.216 2.532 3.1 0 1.871-1.003 3.099-2.532 3.099zm-.225-5.338c-1.098 0-1.781.855-1.781 2.238s.683 2.239 1.781 2.239c1.104 0 1.76-.84 1.76-2.239 0-1.4-.656-2.238-1.76-2.238zm5.87 5.232V11.76h.964v8.365h-.964zm6.789-5.249c-.964 0-1.636.7-1.709 1.761h3.328c-.022-1.06-.661-1.76-1.619-1.76zm1.591 3.7h.964c-.292 1.027-1.222 1.655-2.544 1.655-1.675 0-2.723-1.2-2.723-3.094 0-1.883 1.065-3.105 2.723-3.105 1.63 0 2.622 1.15 2.622 3.01v.367h-4.342v.044c.05 1.183.717 1.933 1.743 1.933.778 0 1.305-.283 1.557-.81zm11.364 1.655c-1.72 0-2.784-1.178-2.784-3.1 0-1.927 1.064-3.099 2.784-3.099 1.72 0 2.785 1.172 2.785 3.1 0 1.921-1.065 3.099-2.785 3.099zm0-.861c1.143 0 1.788-.822 1.788-2.239 0-1.422-.645-2.238-1.788-2.238s-1.787.816-1.787 2.238c0 1.417.644 2.239 1.787 2.239zm5.842.755v-5.987h.919v.944h.09c.302-.661.89-1.05 1.815-1.05 1.356 0 2.112.794 2.112 2.216v3.877h-.964v-3.644c0-1.077-.459-1.588-1.423-1.588-.963 0-1.585.639-1.585 1.688v3.544h-.964zm13.426-7.537h.964v1.55h1.345v.8h-1.345v3.387c0 .706.269 1.006.896 1.006.174 0 .27-.006.449-.022v.805c-.19.033-.376.055-.566.055-1.244 0-1.743-.455-1.743-1.6v-3.632h-.975v-.8h.975v-1.549zm5.366 7.537V11.76h.964v3.322h.09c.302-.661.935-1.05 1.86-1.05 1.277 0 2.083.811 2.083 2.216v3.877h-.963v-3.644c0-1.06-.482-1.588-1.395-1.588-1.082 0-1.675.678-1.675 1.688v3.544h-.964zm10.71-5.249c-.963 0-1.636.7-1.708 1.761h3.328c-.023-1.06-.662-1.76-1.62-1.76zm1.591 3.7h.964c-.291 1.027-1.221 1.655-2.543 1.655-1.676 0-2.723-1.2-2.723-3.094 0-1.883 1.064-3.105 2.723-3.105 1.63 0 2.622 1.15 2.622 3.01v.367h-4.342v.044c.05 1.183.717 1.933 1.742 1.933.779 0 1.305-.283 1.557-.81z"/>
    </g>
</svg>
